<svg width="48" height="48" viewBox="0 0 48 48" fill="none" xmlns="http://www.w3.org/2000/svg">
<path d="M20.7364 12.2832C14.0214 13.4681 9 18.2324 9 23.9294C9 26.8573 10.3263 29.5389 12.5272 31.6148L12 38L18.5605 35.0503C20.2469 35.5724 22.0814 35.8588 24 35.8588C27.9974 35.8588 31.6296 34.6153 34.3183 32.588" stroke="#FDBE63" stroke-width="1.5" stroke-linecap="round" stroke-linejoin="round"/>
<path fill-rule="evenodd" clip-rule="evenodd" d="M31 12.8C36.5228 12.8 41 16.3606 41 20.7529C41 22.7049 40.1158 24.4926 38.6485 25.8765L39 30.1333L34.6263 28.1668C33.5021 28.5149 32.2791 28.7059 31 28.7059C25.4772 28.7059 21 25.1452 21 20.7529C21 16.3606 25.4772 12.8 31 12.8Z" stroke="#FDBE63" stroke-width="1.5" stroke-linecap="round" stroke-linejoin="round"/>
</svg>
