<svg width="48" height="48" viewBox="0 0 48 48" fill="none" xmlns="http://www.w3.org/2000/svg">
<path fill-rule="evenodd" clip-rule="evenodd" d="M32.1 12.6C33.2046 12.6 34.1 13.4954 34.1 14.6V18.5543C34.697 18.5848 35.3636 18.6 36.1 18.6H37.85C39.9211 18.6 41.6 20.2789 41.6 22.35V30.6C41.6 31.7046 40.7046 32.6 39.6 32.6L36.5127 32.6006C36.1898 31.2922 35.0082 30.322 33.6 30.322C32.1918 30.322 31.0102 31.2922 30.6873 32.6006H22.3127C21.9898 31.2922 20.8082 30.322 19.4 30.322C17.9918 30.322 16.8102 31.2922 16.4873 32.6006L13.6 32.6C12.4954 32.6 11.6 31.7046 11.6 30.6V14.6C11.6 13.4954 12.4954 12.6 13.6 12.6H32.1Z" stroke="#FDBE63" stroke-width="1.5" stroke-linejoin="round"/>
<path d="M19.4 36.322C21.0569 36.322 22.4 34.9788 22.4 33.322C22.4 31.6651 21.0569 30.322 19.4 30.322C17.7431 30.322 16.4 31.6651 16.4 33.322C16.4 34.9788 17.7431 36.322 19.4 36.322Z" stroke="#FDBE63" stroke-width="1.5"/>
<path d="M33.6 36.322C35.2569 36.322 36.6 34.9788 36.6 33.322C36.6 31.6651 35.2569 30.322 33.6 30.322C31.9431 30.322 30.6 31.6651 30.6 33.322C30.6 34.9788 31.9431 36.322 33.6 36.322Z" stroke="#FDBE63" stroke-width="1.5"/>
<path d="M4.6 25.322H14.6" stroke="#FDBE63" stroke-width="1.5" stroke-linecap="round" stroke-linejoin="round"/>
<path d="M8.6 19.322H14.6" stroke="#FDBE63" stroke-width="1.5" stroke-linecap="round" stroke-linejoin="round"/>
</svg>
