<svg width="48" height="48" viewBox="0 0 48 48" fill="none" xmlns="http://www.w3.org/2000/svg">
<path d="M24.0725 38C29.1812 34.7984 32.9136 31.4765 35.2696 28.0342C37.2991 25.0733 38.1972 22.2328 37.9639 19.5127C37.8706 18.3091 37.5557 17.2018 37.0192 16.1907C36.5293 15.2519 35.8645 14.4335 35.0247 13.7354C34.2316 13.0854 33.3451 12.616 32.3654 12.3272C31.3856 12.0383 30.3826 11.954 29.3562 12.0744C27.9099 12.267 26.7202 12.7484 25.7871 13.5187C25.0173 14.1446 24.4224 14.939 24.0025 15.9019C23.5826 14.939 22.9995 14.1446 22.253 13.5187C21.2732 12.7484 20.0602 12.267 18.6139 12.0744C18.3573 12.0263 18.1124 12.0022 17.8791 12.0022C16.8994 11.9781 15.943 12.1526 15.0099 12.5258C14.0768 12.8989 13.2486 13.4465 12.5255 14.1687C11.7557 14.8908 11.1725 15.7213 10.776 16.6601C10.3094 17.6952 10.0528 18.8025 10.0062 19.9821C9.91284 22.6541 10.8809 25.4344 12.9104 28.323C15.3131 31.6931 18.9872 34.9188 23.9326 38C23.9559 37.9759 23.9792 37.9639 24.0025 37.9639C24.0492 37.9639 24.0725 37.9759 24.0725 38Z" stroke="#FDBE63" stroke-width="1.5" stroke-linejoin="round"/>
</svg>
