<svg width="254" height="60" viewBox="0 0 254 60" fill="none" xmlns="http://www.w3.org/2000/svg">
<g clip-path="url(#clip0)">
<g clip-path="url(#clip1)">
<path d="M84.032 42.3591C84.032 46.0974 84.6062 48.838 85.7415 50.6197C84.1782 51.2052 82.5251 51.5187 80.8546 51.5462C79.4867 51.6222 78.1261 51.3002 76.9398 50.6197C76.451 50.2734 76.0357 49.8348 75.7177 49.329C75.3998 48.8231 75.1854 48.26 75.0868 47.6718C73.7963 48.9977 72.2125 50.007 70.4609 50.6197C68.473 51.3067 66.3803 51.6464 64.2756 51.6239C60.9155 51.6239 58.1947 50.6975 56.0938 48.8574C53.9929 47.0174 52.949 44.4194 52.949 41.0827C52.949 33.6708 58.9951 29.6517 71.0873 29.0254C71.8768 28.98 72.9859 28.9541 74.4213 28.9541V27.6583C74.4213 25.8831 73.9255 24.6003 72.9337 23.8098C71.942 23.0194 70.2891 22.6242 67.9751 22.6242C66.4297 22.6282 64.8925 22.8462 63.4079 23.2721C61.3313 23.9301 59.3354 24.8168 57.4575 25.9155C56.7818 25.142 56.2335 24.2674 55.8328 23.3239C55.47 22.6077 55.2486 21.8292 55.1804 21.0304C55.1804 20.1233 55.909 19.2595 57.3661 18.4388C59.0675 17.5076 60.9027 16.8412 62.8076 16.4627C65.0138 15.9737 67.2674 15.726 69.5279 15.7241C74.6562 15.7241 78.3535 16.7521 80.6197 18.8081C82.8859 20.8641 84.019 24.2137 84.019 28.8569L84.032 42.3591ZM74.5649 34.0271H73.5079C73.1609 34.028 72.8143 34.0518 72.4705 34.0984C68.9407 34.3381 66.37 34.986 64.7911 36.0032C64.0433 36.4544 63.4295 37.0946 63.0122 37.8584C62.595 38.6221 62.3893 39.4821 62.4161 40.3506C62.3705 41.0002 62.4631 41.652 62.6879 42.2638C62.9128 42.8755 63.2648 43.4333 63.721 43.901C64.8065 44.8189 66.2147 45.271 67.6358 45.158C69.3101 45.1697 70.9571 44.7357 72.4052 43.901C73.8667 43.0631 74.5975 42.2144 74.5975 41.3548L74.5649 34.0271Z" fill="white"/>
<path d="M103.658 50.6844H93.5122V16.7282L94.4061 16.5792C95.2161 16.4872 96.0309 16.4418 96.8463 16.4432C100.5 16.4432 102.599 17.6871 103.142 20.175C105.413 17.2077 109.041 15.724 114.025 15.724C116.007 15.6496 117.978 16.0543 119.767 16.9032C121.28 17.7095 122.487 18.9832 123.206 20.5314C125.868 17.3222 129.619 15.7197 134.46 15.724C137.566 15.724 140.032 16.3568 141.859 17.6223C142.759 18.2451 143.515 19.0506 144.078 19.9855C144.64 20.9204 144.996 21.9634 145.122 23.0452C145.492 25.4961 145.664 27.9725 145.637 30.4506V50.6844H135.57V30.8718C135.637 29.3486 135.499 27.8232 135.159 26.3365C134.927 25.5494 134.399 24.8811 133.684 24.4706C132.752 24.0163 131.719 23.8066 130.683 23.8616C129.457 23.8616 128.245 24.12 127.127 24.6196C126.117 25.0145 125.243 25.6892 124.608 26.5633C124.761 27.9706 124.835 29.3851 124.83 30.8005V50.6844H114.763V30.8718C114.763 28.5264 114.6 26.9261 114.28 26.0579C114.005 25.2506 113.438 24.5739 112.688 24.1596C111.72 23.7012 110.653 23.4896 109.582 23.5441C108.081 23.4837 106.596 23.8744 105.322 24.665C104.826 24.9413 104.412 25.3413 104.12 25.8254C103.829 26.3095 103.669 26.8609 103.658 27.425V50.6844Z" fill="white"/>
<path d="M206.785 5.24124C206.804 5.93175 206.675 6.61833 206.407 7.25592C206.14 7.8935 205.739 8.46767 205.233 8.94072C204.168 9.88377 202.79 10.4049 201.363 10.4049C199.936 10.4049 198.559 9.88377 197.494 8.94072C196.998 8.46179 196.607 7.88566 196.346 7.24883C196.086 6.612 195.961 5.92836 195.981 5.24124C195.96 4.55092 196.083 3.86378 196.339 3.22202C196.596 2.58027 196.983 1.99745 197.475 1.50937C198.526 0.538921 199.908 -0.000488281 201.344 -0.000488281C202.779 -0.000488281 204.162 0.538921 205.213 1.50937C205.722 1.98838 206.125 2.56777 206.396 3.2104C206.667 3.85304 206.799 4.54476 206.785 5.24124Z" fill="white"/>
<path d="M226.333 50.6845H216.187V16.7284L217.081 16.5793C217.891 16.4874 218.706 16.4419 219.521 16.4433C223.175 16.4433 225.274 17.6872 225.818 20.1752C228.088 17.2078 231.714 15.7241 236.694 15.7241C239.852 15.7241 242.351 16.3202 244.171 17.5188C245.103 18.1583 245.897 18.9768 246.506 19.926C247.114 20.8752 247.525 21.9358 247.714 23.0453C248.183 25.485 248.387 27.9678 248.321 30.4508V50.6845H238.253V30.8719C238.332 29.2781 238.17 27.6815 237.771 26.1358C237.509 25.29 236.923 24.5802 236.139 24.1597C235.157 23.7044 234.078 23.4932 232.995 23.5442C231.343 23.4898 229.707 23.8769 228.258 24.6651C226.953 25.4037 226.311 26.3237 226.333 27.4251V50.6845Z" fill="white"/>
<path d="M28.1035 32.006V24.6913H46.1048V46.1949C44.9185 47.4847 43.4799 48.5208 41.8769 49.24C39.8835 50.1805 37.7824 50.8767 35.6198 51.3133C33.1961 51.8054 30.7274 52.0464 28.2536 52.0324C23.2601 52.0324 19.0387 51.0282 15.5894 49.0197C12.1219 46.9953 9.36907 43.9562 7.7077 40.3185C5.90257 36.5435 5 32.0514 5 26.8423C5 21.6332 5.96129 17.1412 7.88386 13.3661C9.68161 9.72349 12.5658 6.71924 16.144 4.76208C19.7194 2.80112 24.0017 1.82064 28.9908 1.82064C31.6193 1.80722 34.2332 2.2074 36.7355 3.00629C38.8315 3.61838 40.7987 4.60172 42.5424 5.90885C43.9778 7.05562 44.689 8.2024 44.689 9.34917C44.6173 10.2911 44.2704 11.1918 43.6907 11.9407C42.9554 12.9987 42.0772 13.9514 41.0809 14.772C39.3801 13.1812 37.4041 11.9082 35.2479 11.0143C33.3 10.2708 31.2276 9.90141 29.1409 9.9258C24.6477 9.9258 21.2288 11.3706 18.8843 14.2602C16.5398 17.1498 15.3675 21.2942 15.3675 26.6933C15.3675 32.3343 16.5637 36.6536 18.9561 39.6512C21.3484 42.6488 24.8282 44.1605 29.3954 44.1864C31.2665 44.2395 33.1295 43.9223 34.876 43.2535C35.4811 42.9884 36.0527 42.6535 36.5789 42.2557V32.006H28.1035Z" fill="white"/>
<path d="M206.42 51.2224C206.068 51.4103 204.887 51.514 202.864 51.514C200.548 51.514 198.877 51.0345 197.866 50.0756C196.855 49.1167 196.346 47.6072 196.346 45.5404V16.8451C196.787 16.7547 197.234 16.6941 197.683 16.6637C198.421 16.5925 199.112 16.5601 199.758 16.5601C204.195 16.5601 206.416 18.4498 206.42 22.2291V51.2224Z" fill="white"/>
<path d="M179.963 14.4739C179.963 14.3379 179.963 14.2083 179.963 14.0787C179.912 10.875 178.6 7.81832 176.308 5.56332C174.015 3.30832 170.925 2.03425 167.698 2.01392C164.472 1.99359 161.365 3.22863 159.044 5.45456C156.723 7.6805 155.372 10.7204 155.28 13.9232C155.248 16.4371 155.117 26.2915 155.28 29.4727C155.446 32.2784 156.34 34.9937 157.876 37.354C159.413 39.7143 161.539 41.6392 164.047 42.941C166.555 44.2428 169.36 44.8772 172.189 44.7822C175.018 44.6873 177.773 43.8663 180.187 42.3993C182.602 40.9323 184.592 38.8693 185.964 36.4114C187.336 33.9534 188.044 31.1844 188.018 28.374C187.992 25.5637 187.234 22.808 185.816 20.3754C184.399 17.9428 182.371 15.9163 179.93 14.4934L179.963 14.4739ZM162.281 5.55244C169.635 1.61972 177.079 6.53076 177.595 13.3272C175.704 12.597 173.692 12.2235 171.664 12.2257C166.398 12.2257 160.024 15.083 157.44 19.2813C157.518 16.2751 157.525 14.6618 157.747 12.459C158.001 9.91924 160.024 6.75752 162.281 5.55244ZM177.471 15.8086C177.057 18.1042 175.845 20.1826 174.046 21.6807C172.246 23.1788 169.973 24.0013 167.625 24.0045C165.162 23.982 162.765 23.2184 160.748 21.8146C160.549 21.6738 160.382 21.4925 160.259 21.2828C160.136 21.073 160.059 20.8397 160.034 20.5982C160.009 20.3567 160.035 20.1127 160.112 19.8823C160.189 19.6519 160.315 19.4404 160.481 19.2619C161.939 17.7825 163.678 16.605 165.598 15.7976C167.517 14.9902 169.579 14.5689 171.664 14.5582C173.667 14.5554 175.648 14.9819 177.471 15.8086ZM165.315 41.0376C163.109 40.0257 161.227 38.4273 159.879 36.4194C158.53 34.4115 157.768 32.0723 157.675 29.6606C157.564 27.1791 157.558 24.3414 157.558 22.0478C159.796 24.2766 164.219 26.3369 167.632 26.3369C170.389 26.3279 173.065 25.4062 175.236 23.7177C177.406 22.0291 178.948 19.6701 179.617 17.0137C181.501 18.2908 183.043 20.0052 184.108 22.0082C185.174 24.0112 185.731 26.2421 185.731 28.5073C185.731 38.2257 175.637 45.6377 165.315 41.0376Z" fill="#FEBF63"/>
<path d="M190.872 50.2244C190.872 50.354 190.67 50.4706 190.33 50.5548C189.902 50.6487 189.464 50.6922 189.025 50.6844H152.958C151.933 50.6844 151.111 50.4836 151.111 50.2244C151.111 50.1661 159.861 50.1143 170.685 50.1143C181.509 50.1143 190.259 50.1661 190.259 50.2244H190.872Z" fill="#FDBE63"/>
<path opacity="0.5" d="M178.762 19.3656C178.567 19.8774 176.231 23.376 175.285 22.2617C174.75 21.6138 176.009 19.8191 176.909 17.7264C177.174 17.1032 177.363 16.4506 177.47 15.7827C179.239 16.4306 179.611 16.9878 179.611 16.9878C179.611 16.9878 178.952 18.8537 178.762 19.3656Z" fill="url(#paint0_linear)"/>
<path opacity="0.5" d="M157.094 20.5898C157.023 21.471 156.566 21.5034 157.551 22.6242V22.0282C157.365 21.8419 157.226 21.6142 157.147 21.364C157.067 21.1138 157.049 20.8484 157.094 20.5898Z" fill="url(#paint1_linear)"/>
</g>
</g>
<defs>
<linearGradient id="paint0_linear" x1="177.386" y1="22.4819" x2="177.386" y2="15.8086" gradientUnits="userSpaceOnUse">
<stop stop-opacity="0"/>
<stop offset="1"/>
</linearGradient>
<linearGradient id="paint1_linear" x1="302.41" y1="90.5319" x2="304.715" y2="89.3017" gradientUnits="userSpaceOnUse">
<stop stop-opacity="0"/>
<stop offset="1"/>
</linearGradient>
<clipPath id="clip0">
<rect width="254" height="60" fill="white"/>
</clipPath>
<clipPath id="clip1">
<rect width="243.321" height="52" fill="white" transform="translate(5)"/>
</clipPath>
</defs>
</svg>
