<svg width="48" height="48" viewBox="0 0 48 48" fill="none" xmlns="http://www.w3.org/2000/svg">
<path d="M15.1874 38.4854C15.4923 38.4854 15.7971 38.4092 16.102 38.2568L23.2279 34.9415C23.4312 34.8399 23.6852 34.789 23.9901 34.789C24.3203 34.789 24.5871 34.8399 24.7903 34.9415L31.8401 38.2568C32.78 38.6378 33.5295 38.5235 34.0884 37.9138C34.444 37.5073 34.5838 36.9738 34.5075 36.3133L33.5549 28.5395C33.5295 28.3109 33.5676 28.0569 33.6692 27.7774C33.7708 27.4471 33.8978 27.2058 34.0503 27.0534L39.3852 21.3755C39.9441 20.7404 40.1219 20.1052 39.9187 19.4701C39.6647 18.7842 39.1439 18.3777 38.3563 18.2507L30.6588 16.7646C30.4809 16.7391 30.2586 16.6312 29.9919 16.4406C29.7252 16.2501 29.5283 16.0659 29.4012 15.8881L25.8192 9.33374C25.6922 9.07969 25.5144 8.82565 25.2857 8.5716C24.9046 8.19053 24.4728 8 23.9901 8C23.2534 8 22.669 8.41917 22.2372 9.25752L18.5408 15.8881C18.4646 16.0659 18.2931 16.2501 18.0264 16.4406C17.7596 16.6312 17.5119 16.7391 17.2833 16.7646L9.62384 18.2507C8.78549 18.3777 8.2774 18.7842 8.09957 19.4701C7.87093 20.1306 8.03606 20.7658 8.59496 21.3755L13.968 27.0534C14.095 27.2312 14.2094 27.4725 14.311 27.7774C14.438 28.0823 14.4761 28.3363 14.4253 28.5395L13.4345 36.3133C13.3837 36.9738 13.5361 37.5073 13.8918 37.9138C14.2221 38.2949 14.6539 38.4854 15.1874 38.4854Z" stroke="#FDBE63" stroke-width="1.5"/>
</svg>
